<?xml version="1.0" standalone="no"?>
<!DOCTYPE svg PUBLIC "-//W3C//DTD SVG 20010904//EN"
 "http://www.w3.org/TR/2001/REC-SVG-20010904/DTD/svg10.dtd">
<svg version="1.0" xmlns="http://www.w3.org/2000/svg"
 width="16.000000pt" height="16.000000pt" viewBox="0 0 16.000000 16.000000"
 preserveAspectRatio="xMidYMid meet">
<metadata>
Created by potrace 1.11, written by Peter Selinger 2001-2013
</metadata>
<g transform="translate(0.000000,16.000000) scale(0.005161,-0.005161)"
fill="#000000" stroke="none">
<path d="M873 2727 l-653 -362 0 -825 0 -825 648 -353 c387 -210 660 -352 675
-352 23 0 1273 668 1315 702 9 8 12 182 10 830 l-3 820 -644 364 c-416 235
-653 364 -670 363 -14 0 -313 -159 -678 -362z m1258 -129 c312 -178 568 -325
569 -328 0 -3 -190 -105 -423 -228 -232 -122 -493 -260 -579 -306 l-157 -83
-245 132 c-135 72 -248 133 -251 136 -3 3 54 38 125 78 72 40 130 77 130 81 0
23 -25 13 -145 -56 -72 -41 -135 -74 -142 -74 -13 0 -255 122 -482 243 -129
69 -133 72 -111 86 81 54 1109 639 1124 640 10 1 274 -144 587 -321z m422
-741 l47 -39 0 -432 0 -432 -432 -236 -433 -235 -3 449 -2 450 75 83 c75 83
85 100 63 107 -7 3 55 40 137 83 83 44 224 118 315 166 90 48 169 85 175 81 5
-3 31 -23 58 -45z"/>
<path d="M1050 2196 c0 -8 5 -18 10 -21 6 -3 10 3 10 14 0 12 -4 21 -10 21 -5
0 -10 -6 -10 -14z"/>
<path d="M1140 2151 c0 -6 5 -13 10 -16 6 -3 10 1 10 9 0 9 -4 16 -10 16 -5 0
-10 -4 -10 -9z"/>
<path d="M1212 2120 c0 -14 2 -19 5 -12 2 6 2 18 0 25 -3 6 -5 1 -5 -13z"/>
<path d="M2158 1562 c-65 -36 -118 -72 -118 -79 0 -9 15 -13 45 -13 l45 0 0
-283 0 -284 -45 -32 c-53 -38 -59 -61 -14 -61 44 0 239 107 239 132 0 14 -8
18 -40 18 l-40 0 0 279 0 279 40 32 c27 21 40 40 40 56 0 37 -23 30 -152 -44z"/>
</g>
</svg>
